<svg width="512" height="512" viewBox="0 0 512 512" fill="none" xmlns="http://www.w3.org/2000/svg">
<g clip-path="url(#clip0_61_2)">
<path d="M258.202 349.862C290.675 349.862 316.992 323.942 316.992 291.968C316.992 259.994 290.675 234.074 258.202 234.074C225.741 234.074 199.424 259.994 199.424 291.968C199.424 323.942 225.741 349.862 258.202 349.862Z" fill="white"/>
<path fill-rule="evenodd" clip-rule="evenodd" d="M133.542 73.9328L260.48 0L381.491 73.152L382.259 212.442L322.189 250.214C322.189 250.214 286.848 217.318 254.707 217.306C222.554 217.306 193.702 250.202 193.702 250.202L137.037 212.608L133.555 73.9328H133.542ZM148.288 199.91L252.301 138.829L251.226 19.7632L144.422 82.304L148.288 199.91ZM154.099 214.963C159.91 214.963 192.243 236.608 192.243 236.608C192.243 236.608 221.427 204.608 255.872 205.645C290.304 206.694 323.622 237.453 323.622 237.453L369.114 211.059L259.494 153.178C259.494 153.178 148.288 214.963 154.099 214.963ZM128.474 512L0 440.704L3.8272 300.928L129.114 227.507L189.184 262.989C189.184 262.989 178.342 308.006 194.406 335.437C210.47 362.842 253.414 372.57 253.414 372.57L251.866 439.68L128.474 512ZM231.898 436.429L126.17 378.266L22.0032 438.72L130.394 498.534L231.898 436.429ZM242.214 423.949C239.309 418.995 242.189 380.608 242.189 380.608C242.189 380.608 199.872 370.138 183.565 340.25C167.27 310.362 177.242 268.134 177.242 268.134L131.277 242.522L135.181 364.966C135.181 364.966 245.12 428.902 242.214 423.949ZM510.451 296.102L512 441.318L387.174 507.942L264.294 438.95L261.107 371.955C261.107 371.955 304.115 362.97 320.192 335.565C336.269 308.147 328.55 262.387 328.55 262.387L386.752 229.734L510.451 296.102ZM392.282 245.683L393.997 364.928L499.238 423.552L497.651 301.184L392.282 245.683ZM379.328 246.259L341.222 267.942C341.222 267.942 347.994 313.549 329.856 342.4C311.718 371.238 274.79 379.571 274.79 379.571L275.251 425.318L377.779 363.891L379.328 246.259Z" fill="white"/>
</g>
<defs>
<clipPath id="clip0_61_2">
<rect width="512" height="512" fill="white"/>
</clipPath>
</defs>
</svg>
