<svg width="60" height="60" viewBox="0 0 60 60" fill="none" xmlns="http://www.w3.org/2000/svg">
<g clip-path="url(#clip0_61_2)">
<path d="M30.258 40.9995C34.0635 40.9995 37.1475 37.962 37.1475 34.215C37.1475 30.468 34.0635 27.4305 30.258 27.4305C26.454 27.4305 23.37 30.468 23.37 34.215C23.37 37.962 26.454 40.9995 30.258 40.9995Z" fill="#00B2FF"/>
<path fill-rule="evenodd" clip-rule="evenodd" d="M15.6495 8.664L30.525 0L44.706 8.5725L44.796 24.8955L37.7565 29.322C37.7565 29.322 33.615 25.467 29.8485 25.4655C26.0805 25.4655 22.6995 29.3205 22.6995 29.3205L16.059 24.915L15.651 8.664H15.6495ZM17.3775 23.427L29.5665 16.269L29.4405 2.316L16.9245 9.645L17.3775 23.427ZM18.0585 25.191C18.7395 25.191 22.5285 27.7275 22.5285 27.7275C22.5285 27.7275 25.9485 23.9775 29.985 24.099C34.02 24.222 37.9245 27.8265 37.9245 27.8265L43.2555 24.7335L30.4095 17.9505C30.4095 17.9505 17.3775 25.191 18.0585 25.191ZM15.0555 60L0 51.645L0.4485 35.265L15.1305 26.661L22.17 30.819C22.17 30.819 20.8995 36.0945 22.782 39.309C24.6645 42.5205 29.697 43.6605 29.697 43.6605L29.5155 51.525L15.0555 60ZM27.1755 51.144L14.7855 44.328L2.5785 51.4125L15.2805 58.422L27.1755 51.144ZM28.3845 49.6815C28.044 49.101 28.3815 44.6025 28.3815 44.6025C28.3815 44.6025 23.4225 43.3755 21.5115 39.873C19.602 36.3705 20.7705 31.422 20.7705 31.422L15.384 28.4205L15.8415 42.7695C15.8415 42.7695 28.725 50.262 28.3845 49.6815ZM59.8185 34.6995L60 51.717L45.372 59.5245L30.972 51.4395L30.5985 43.5885C30.5985 43.5885 35.6385 42.5355 37.5225 39.324C39.4065 36.111 38.502 30.7485 38.502 30.7485L45.3225 26.922L59.8185 34.6995ZM45.9705 28.791L46.1715 42.765L58.5045 49.635L58.3185 35.295L45.9705 28.791ZM44.4525 28.8585L39.987 31.3995C39.987 31.3995 40.7805 36.744 38.655 40.125C36.5295 43.5045 32.202 44.481 32.202 44.481L32.256 49.842L44.271 42.6435L44.4525 28.8585Z" fill="#00B2FF"/>
</g>
<defs>
<clipPath id="clip0_61_2">
<rect width="60" height="60" fill="white"/>
</clipPath>
</defs>
</svg>
